<svg width="1000" height="1000" viewBox="0 0 1000 1000" fill="none" xmlns="http://www.w3.org/2000/svg">
	<path d="M962.6 962.6C926.1 999.1 866.9 999.1 830.4 962.6L500 632.2L169.6 962.6C133.1 999.1 73.9 999.1 37.4 962.6C0.899994 926.1 0.899994 866.9 37.4 830.4L367.8 500L37.4 169.6C0.899994 133.1 0.899994 73.8999 37.4 37.3999C73.9 0.899902 133.1 0.899902 169.6 37.3999L500 367.8L830.4 37.3999C866.9 0.899902 926.1 0.899902 962.6 37.3999C999.1 73.8999 999.1 133.1 962.6 169.6L632.2 500L962.6 830.4C999.1 866.9 999.1 926.1 962.6 962.6Z" fill="#FFFDFD" />
</svg>
